<mxfile host="app.diagrams.net" modified="2024-01-31T06:57:16.332Z" agent="Mozilla/5.0 (Windows NT 10.0; Win64; x64) AppleWebKit/537.36 (KHTML, like Gecko) Chrome/120.0.0.0 Safari/537.36" version="23.0.2" etag="Z7L852cCK8UpIyMVmyFi" type="github">
  <diagram name="第 1 页" id="JjWbMYco9v7xk5YkgbG5">
    <mxGraphModel>
      <root>
        <mxCell id="0" />
        <mxCell id="1" parent="0" />
      </root>
    </mxGraphModel>
  </diagram>
</mxfile>
